<svg xmlns="http://www.w3.org/2000/svg" viewBox="0 0 117 24"><path d="M45.158 14.229c.302.199.639.294 1.002.294a1.84 1.84 0 0 0 1.425-.64c.372-.423.562-1.028.562-1.814s-.19-1.39-.562-1.823c-.371-.432-.846-.64-1.425-.64a1.75 1.75 0 0 0-1.002.295 2.077 2.077 0 0 0-.717.838c-.182.362-.268.803-.268 1.339 0 .51.086.95.268 1.322.172.354.414.63.717.829zm-36.406-.821c.293.337.648.596 1.054.786.406.182.864.277 1.365.277.5 0 .959-.095 1.365-.277.406-.19.76-.449 1.054-.786a3.51 3.51 0 0 0 .674-1.175c.155-.449.233-.924.233-1.425a4.24 4.24 0 0 0-.233-1.417 3.43 3.43 0 0 0-.674-1.158 3.247 3.247 0 0 0-1.054-.777 3.321 3.321 0 0 0-1.365-.277c-.502 0-.96.095-1.365.277-.406.181-.76.44-1.054.777a3.431 3.431 0 0 0-.674 1.158 4.24 4.24 0 0 0-.234 1.417c0 .5.078.976.234 1.425.155.45.38.838.674 1.175zm44.043.821a1.89 1.89 0 0 0 1.036.302c.39 0 .743-.095 1.054-.302.312-.199.562-.484.744-.855.18-.372.276-.812.276-1.314 0-.51-.095-.95-.276-1.321a2.014 2.014 0 0 0-.743-.838 1.994 1.994 0 0 0-1.055-.294c-.38 0-.725.095-1.036.294a2.01 2.01 0 0 0-.743.838c-.182.371-.268.803-.268 1.321 0 .502.086.942.268 1.314.181.371.423.656.743.855zm-33.382 0c.302.199.639.294 1.01.294a1.84 1.84 0 0 0 1.426-.64c.371-.423.561-1.028.561-1.814s-.19-1.39-.561-1.823c-.372-.432-.847-.64-1.426-.64-.371 0-.708.096-1.01.295a2.076 2.076 0 0 0-.718.838c-.181.362-.267.803-.267 1.339 0 .51.086.95.267 1.322.182.354.415.63.718.829zm9.883-4.251c-.328-.362-.769-.553-1.322-.553-.397 0-.743.104-1.037.311a2.017 2.017 0 0 0-.69.89c-.113.26-.182.553-.217.882h3.801c-.025-.648-.207-1.158-.535-1.53z"/><path d="M6.695 8.864a4.714 4.714 0 0 1 2.557-2.618 4.84 4.84 0 0 1 1.919-.38c.69 0 1.33.13 1.918.38a4.714 4.714 0 0 1 2.557 2.618c.242.605.363 1.253.363 1.944a5.23 5.23 0 0 1-.363 1.952 4.741 4.741 0 0 1-4.475 3.015c-.691 0-1.33-.12-1.918-.38a4.738 4.738 0 0 1-2.558-2.635 5.198 5.198 0 0 1-.362-1.952c0-.7.12-1.348.362-1.944zm10.402-.311h1.244V9.84c.25-.45.58-.803.994-1.045.415-.25.872-.372 1.365-.372.63 0 1.175.156 1.633.467.458.31.82.743 1.08 1.296.259.544.388 1.175.388 1.883s-.13 1.33-.388 1.883c-.26.545-.614.977-1.08 1.296-.467.311-1.011.467-1.633.467-.475 0-.907-.112-1.296-.346a2.783 2.783 0 0 1-.968-.985v3.75h-1.339V8.553zm7.983 1.615a3.399 3.399 0 0 1 1.192-1.278c.501-.311 1.08-.467 1.72-.467.526 0 1.002.095 1.425.294.423.199.777.475 1.071.838.294.354.51.778.64 1.261.129.484.164 1.011.103 1.581h-5.235c.026.39.103.743.224 1.037.156.398.39.7.691.907.303.216.666.32 1.089.32.501 0 .924-.13 1.253-.38.328-.26.553-.614.656-1.072h1.322c-.173.778-.536 1.391-1.106 1.832-.57.45-1.27.674-2.1.674-.682 0-1.278-.156-1.779-.458a3.023 3.023 0 0 1-1.183-1.296c-.285-.553-.424-1.2-.424-1.935.009-.7.156-1.313.44-1.857zm7.326 5.4V9.21l.674-.674h4.535l.666.665v6.367h-1.34V9.78h-3.205v5.788h-1.33zm10.428-7.015h1.244V9.84c.25-.45.579-.803.993-1.045a2.6 2.6 0 0 1 1.365-.372c.631 0 1.175.156 1.633.467.458.31.82.743 1.08 1.296.26.544.389 1.175.389 1.883s-.13 1.33-.389 1.883c-.26.545-.613.977-1.08 1.296-.466.311-1.01.467-1.633.467-.475 0-.907-.112-1.296-.346a2.783 2.783 0 0 1-.967-.985v3.75h-1.34V8.553zm7.81 2.073c.172-.44.414-.829.725-1.157a3.274 3.274 0 0 1 1.098-.77 3.39 3.39 0 0 1 1.373-.267c.501 0 .968.086 1.382.268.424.181.778.44 1.089.769.302.328.544.717.717 1.157.173.441.26.925.26 1.443s-.087 1.002-.26 1.443a3.68 3.68 0 0 1-.717 1.157 3.156 3.156 0 0 1-1.089.77 3.463 3.463 0 0 1-1.382.276 3.44 3.44 0 0 1-1.373-.277 3.273 3.273 0 0 1-1.098-.769 3.552 3.552 0 0 1-.725-1.157 3.929 3.929 0 0 1-.26-1.443c0-.527.087-1.002.26-1.443zm7.697-4.561h1.357v9.512H58.34V6.065zM61.4 8.553h1.339v7.024h-1.34V8.553zm1.166-2.583h1.339l-1.166 1.883h-1.34l1.167-1.883zm1.883.5h1.34v2.083h2.116v1.14h-2.117v4.709h2.056v1.175h-2.72l-.675-.674V6.47zm5.391-.431c.493 0 .89.397.89.89 0 .492-.397.89-.89.89a.889.889 0 0 1-.89-.89c0-.493.398-.89.89-.89zm2.35 4.147a3.385 3.385 0 0 1 1.166-1.296 3.087 3.087 0 0 1 1.685-.467c.588 0 1.106.121 1.555.363a3 3 0 0 1 1.123 1.037c.294.45.484.976.562 1.58h-1.408c-.07-.56-.268-1.01-.597-1.32-.328-.32-.734-.476-1.235-.476-.389 0-.726.104-1.01.31-.286.208-.502.493-.666.856a3.272 3.272 0 0 0-.242 1.296c0 .493.078.924.242 1.296.156.371.38.657.665.864.285.207.622.302 1.011.302.501 0 .916-.155 1.236-.475.32-.32.526-.76.604-1.322h1.391c-.069.622-.25 1.15-.544 1.599a3.004 3.004 0 0 1-1.123 1.036c-.458.242-.985.363-1.581.363-.648 0-1.21-.155-1.702-.466-.493-.311-.873-.743-1.158-1.288-.276-.553-.415-1.183-.415-1.9.018-.717.156-1.348.441-1.892zm7.266-.009c.259-.553.63-.985 1.097-1.296.466-.31 1.028-.466 1.676-.466.51 0 .959.112 1.348.354.388.233.7.57.95 1.01V8.554h1.244v7.024h-1.244v-1.262a2.75 2.75 0 0 1-.985 1.028 2.614 2.614 0 0 1-1.356.363c-.63 0-1.175-.155-1.642-.466a3.094 3.094 0 0 1-1.088-1.296c-.26-.553-.39-1.175-.39-1.875 0-.708.13-1.339.39-1.892zm-8.933 5.4h-1.34V8.553h1.34v7.024zM0 3.395v17.21A3.396 3.396 0 0 0 3.395 24h88.717V0H3.395A3.396 3.396 0 0 0 0 3.395z"/><path d="M82.445 14.514c.389 0 .734-.095 1.028-.294a2.04 2.04 0 0 0 .7-.855c.173-.372.259-.812.259-1.322 0-.518-.086-.959-.268-1.322-.181-.363-.415-.639-.717-.829a1.86 1.86 0 0 0-1.01-.285c-.588 0-1.063.216-1.435.64-.371.422-.553 1.036-.553 1.83 0 .787.182 1.392.553 1.815a1.89 1.89 0 0 0 1.443.622zm22.307 3.317-.337-.336 5.261-5.262H98.92v-.475h10.765l-5.262-5.261.337-.337 5.832 5.831-5.84 5.84zM113.192 0H92.588v24h20.604a3.395 3.395 0 0 0 3.395-3.395V3.395A3.401 3.401 0 0 0 113.192 0z"/></svg>