<svg xmlns="http://www.w3.org/2000/svg" viewBox="0 0 114 36"><g clip-path="url(#a)"><path d="M11.564 26V11.02h6.972V7.24H.392v3.78h6.972V26h4.2zm14.274.28c3.696 0 5.404-2.212 5.768-4.564h.224V26h3.92V11.972h-4.2v7.112c0 2.38-.98 3.444-3.724 3.444-2.66 0-3.612-.952-3.612-3.22v-7.336h-4.2v8.736c0 3.136 1.876 5.572 5.824 5.572zm16.26-.28v-5.068h3.22l3.5 5.068h4.955l-5.04-7.252 5.124-6.776h-4.984L45.29 17.18h-3.192V7.24h-4.2V26h4.2zm18.576.28c3.696 0 5.404-2.212 5.768-4.564h.224V26h3.92V11.972h-4.2v7.112c0 2.38-.98 3.444-3.724 3.444-2.66 0-3.612-.952-3.612-3.22v-7.336h-4.2v8.736c0 3.136 1.876 5.572 5.824 5.572zM77.857 26v-4.9h-5.404V26h5.404zm6.158 4.76v-8.54h.196c.476 2.464 2.268 4.06 5.516 4.06 4.228 0 6.58-2.828 6.58-7.28s-2.408-7.308-6.72-7.308c-3.304 0-5.096 1.428-5.6 4.116h-.28v-3.836h-3.892V30.76h4.2zm0-11.564v-.224c0-2.492 1.4-3.416 4.116-3.416 2.66 0 3.92.868 3.92 3.444 0 2.548-1.26 3.444-3.948 3.444-2.632 0-4.088-.84-4.088-3.248zm21.487 7.084c4.452 0 7.42-2.128 7.42-5.18v-.308h-4.2v.28c0 1.204-.868 1.848-3.36 1.848-2.716 0-3.724-.924-3.836-3.08h11.424c.056-.476.112-.84.112-1.344 0-4.396-3.052-6.804-7.644-6.804-4.62 0-7.784 2.828-7.784 7.308 0 4.984 3.192 7.28 7.868 7.28zm-.168-11.312c2.464 0 3.584.812 3.696 2.66h-7.448c.196-1.82 1.26-2.66 3.752-2.66z"/></g><defs><clipPath id="a"><path d="M0 0h114v36H0z"/></clipPath></defs></svg>